<svg width="36" height="36" viewBox="0 0 36 36" fill="none" xmlns="http://www.w3.org/2000/svg">
<rect width="36" height="36" rx="4" fill="#CFF242"/>
<path d="M11.9985 25.725C13.4867 27.0478 14.9736 28.3719 16.4635 29.6929C17.3369 30.4669 18.1907 31.2664 19.0964 32.0008C21.2878 33.779 23.7478 34.2281 26.3888 33.2255C29.0116 32.2294 30.5529 30.2799 31.0487 27.516C31.1066 27.1926 31.1298 26.859 31.1313 26.53C31.1409 24.2997 31.1403 22.0691 31.1429 19.8389C31.048 19.952 30.9417 20.0568 30.8599 20.1788C29.5721 22.0971 27.9179 23.5961 25.8233 24.5928C25.8183 25.1812 25.8203 25.7697 25.807 26.3579C25.7873 27.2139 25.3964 27.8469 24.6123 28.1978C23.8286 28.5485 23.1001 28.4284 22.4522 27.8561C21.8001 27.2797 21.1482 26.7029 20.4935 26.1289C20.3859 26.0344 20.2665 25.9536 20.1523 25.8664C20.0256 25.8806 19.899 25.9096 19.773 25.9072C17.1814 25.8569 14.5838 26.0523 11.9988 25.7246L11.9985 25.725Z" fill="white"/>
<path d="M11.998 25.725C14.5831 26.0525 17.1807 25.8572 19.7721 25.9075C19.8981 25.9099 20.0251 25.881 20.1514 25.8668C19.6298 25.3941 19.1062 24.9231 18.5884 24.4464C18.4889 24.3548 18.4119 24.2386 18.3244 24.134C17.1451 24.1301 15.9654 24.1017 14.7867 24.127C12.55 24.1748 10.4573 23.6944 8.5375 22.5227C8.49141 22.4943 8.42989 22.491 8.37549 22.4762C8.59606 22.6953 8.80682 22.9261 9.03929 23.1317C10.0218 24.0004 11.0111 24.8614 11.9977 25.7252L11.998 25.725Z" fill="#E9E8F0"/>
<path d="M25.8221 24.5933C27.9167 23.5961 29.571 22.0976 30.8588 20.1792C30.9406 20.0576 31.0467 19.9523 31.1417 19.8393C31.1566 18.063 31.1712 16.2869 31.1861 14.5109C31.1461 14.5995 31.085 14.684 31.0701 14.7765C30.5091 18.2135 28.7392 20.8304 25.7587 22.6296C25.7499 22.6349 25.746 22.6489 25.7397 22.6591C25.7635 22.7797 25.8055 22.9002 25.8081 23.0212C25.8191 23.5449 25.8188 24.0692 25.8225 24.5933H25.8221Z" fill="#E9E8F0"/>
<path d="M25.8226 24.5932C25.8188 24.069 25.8195 23.5453 25.8084 23.0212C25.8057 22.8998 25.7639 22.7797 25.7401 22.659C23.8473 23.7391 21.8044 24.1939 19.6354 24.1318C19.199 24.1193 18.7617 24.1327 18.3247 24.1338C18.412 24.2388 18.489 24.3547 18.5883 24.4462C19.1061 24.9232 19.6297 25.3938 20.1513 25.8667C20.2655 25.9538 20.3851 26.0347 20.4927 26.1292C21.147 26.7034 21.7989 27.2799 22.4514 27.8565C23.0991 28.4287 23.828 28.5488 24.6113 28.198C25.3954 27.8469 25.7865 27.214 25.806 26.3582C25.8195 25.7702 25.8178 25.1814 25.8226 24.5932Z" fill="#130F33"/>
<path d="M3.41661 14.3884C3.38058 14.1734 3.34875 13.1271 3.40775 12.4319C3.73864 8.53006 5.63386 5.61036 8.984 3.64683C10.5679 2.71896 12.3072 2.28389 14.1375 2.26871C16.2915 2.25085 18.4467 2.23209 20.6 2.28271C25.1693 2.3902 29.2322 5.40876 30.6109 9.79507C31.8731 13.8118 31.0644 17.4505 28.2847 20.6016C27.6525 21.3184 26.8419 21.8761 26.1137 22.5071C26.0594 22.522 25.9981 22.5253 25.952 22.5535C24.0373 23.7276 21.9499 24.2086 19.7191 24.1607C18.5434 24.1353 17.3667 24.1633 16.1905 24.1675C15.7545 24.1661 15.3185 24.1526 14.8832 24.1653C12.7196 24.228 10.6821 23.772 8.79424 22.6902C8.78802 22.68 8.78417 22.666 8.77527 22.6607C5.80197 20.8589 4.03662 18.2372 3.47712 14.7947C3.47712 14.7947 3.45266 14.6033 3.41661 14.3884ZM17.2611 19.8804C18.2855 19.8804 19.3096 19.881 20.334 19.8804C24.6143 19.8784 27.8076 15.6937 26.6995 11.5392C25.9058 8.5634 23.2616 6.52781 20.203 6.53346C18.2721 6.53703 16.3414 6.53346 14.4105 6.53525C12.5085 6.53674 10.8771 7.19334 9.52867 8.55329C7.65538 10.4428 7.1048 13.2888 8.13897 15.7952C9.14559 18.2352 11.5787 19.8786 14.1885 19.8804C15.2129 19.8813 16.2368 19.8804 17.2611 19.8804Z" fill="white"/>
<path d="M17.2725 19.9341C16.2457 19.9341 15.2193 19.9346 14.1925 19.9341C11.5766 19.9318 9.13795 18.2764 8.12902 15.8181C7.09274 13.2929 7.64432 10.4257 9.52192 8.52188C10.8735 7.15142 12.5089 6.4902 14.415 6.48869C16.3503 6.4872 18.2856 6.4905 20.2208 6.4869C23.2866 6.48119 25.9372 8.53206 26.7324 11.53C27.843 15.7158 24.6424 19.9318 20.3521 19.9341C19.3253 19.9346 18.2989 19.9341 17.2721 19.9341H17.2725ZM11.5288 13.2327C11.5371 14.3055 12.3906 15.1503 13.4563 15.1411C14.5202 15.1317 15.3473 14.2712 15.3333 13.1877C15.3197 12.1237 14.4837 11.2955 13.4284 11.3009C12.3579 11.3062 11.5202 12.1584 11.5288 13.2323V13.2327ZM21.1273 15.1413C22.1933 15.1369 23.034 14.2821 23.0283 13.2078C23.023 12.1316 22.1734 11.2904 21.1041 11.3018C20.0482 11.3128 19.2262 12.1484 19.2235 13.2135C19.2205 14.2902 20.0653 15.1455 21.1273 15.1413Z" fill="#130F33"/>
<path d="M11.48 13.1292C11.472 12.0986 12.2832 11.2814 13.3195 11.2762C14.3413 11.2711 15.1507 12.0654 15.164 13.0863C15.1773 14.126 14.3767 14.9514 13.3465 14.9604C12.3146 14.9693 11.4881 14.1588 11.48 13.1296V13.1292Z" fill="#CFF242"/>
<path d="M21.1527 14.9605C20.0728 14.9647 19.214 14.1439 19.2168 13.1106C19.2198 12.0888 20.0553 11.287 21.1287 11.2765C22.2159 11.2654 23.0797 12.073 23.0852 13.1051C23.0906 14.136 22.2362 14.9561 21.1523 14.9605H21.1527Z" fill="#CFF242"/>
</svg>
